<svg width="19" height="50" viewBox="0 0 19 50" fill="none" xmlns="http://www.w3.org/2000/svg">
<path d="M1.97917 41.4286H3.95833V27.3214H1.97917C0.886073 27.3214 0 26.447 0 25.3683V20.7031C0 19.6244 0.886073 18.75 1.97917 18.75H13.0625C14.1556 18.75 15.0417 19.6244 15.0417 20.7031V41.4286H17.0208C18.1139 41.4286 19 42.303 19 43.3817V48.0469C19 49.1256 18.1139 50 17.0208 50H1.97917C0.886073 50 0 49.1256 0 48.0469V43.3817C0 42.303 0.886073 41.4286 1.97917 41.4286ZM9.5 0C5.56492 0 2.375 3.14795 2.375 7.03125C2.375 10.9146 5.56492 14.0625 9.5 14.0625C13.4351 14.0625 16.625 10.9146 16.625 7.03125C16.625 3.14795 13.435 0 9.5 0Z" fill="black"/>
</svg>
