<svg width="14" height="19" viewBox="0 0 14 19" fill="none" xmlns="http://www.w3.org/2000/svg">
<path d="M6.0563 18.1368C0.948164 10.7316 0 9.97155 0 7.25C0 3.52207 3.02207 0.5 6.75 0.5C10.4779 0.5 13.5 3.52207 13.5 7.25C13.5 9.97155 12.5518 10.7316 7.4437 18.1368C7.10849 18.6211 6.39148 18.621 6.0563 18.1368ZM6.75 10.0625C8.30331 10.0625 9.5625 8.80331 9.5625 7.25C9.5625 5.69669 8.30331 4.4375 6.75 4.4375C5.19669 4.4375 3.9375 5.69669 3.9375 7.25C3.9375 8.80331 5.19669 10.0625 6.75 10.0625Z" fill="black"/>
</svg>
