<svg width="45" height="44" viewBox="0 0 45 44" fill="none" xmlns="http://www.w3.org/2000/svg">
<path d="M39.5668 0H5.62286C4.39525 0 3.21792 0.487668 2.34986 1.35572C1.48181 2.22378 0.994141 3.40111 0.994141 4.62872L0.994141 38.5727C0.994141 39.8003 1.48181 40.9776 2.34986 41.8457C3.21792 42.7137 4.39525 43.2014 5.62286 43.2014H18.8581V28.5139H12.7829V21.6007H18.8581V16.3317C18.8581 10.3384 22.4261 7.02794 27.8909 7.02794C30.508 7.02794 33.2448 7.49467 33.2448 7.49467V13.377H30.2293C27.2583 13.377 26.3316 15.2208 26.3316 17.1118V21.6007H32.9641L31.9034 28.5139H26.3316V43.2014H39.5668C40.7944 43.2014 41.9718 42.7137 42.8398 41.8457C43.7079 40.9776 44.1955 39.8003 44.1955 38.5727V4.62872C44.1955 3.40111 43.7079 2.22378 42.8398 1.35572C41.9718 0.487668 40.7944 0 39.5668 0Z" fill="black"/>
</svg>
