<svg width="43" height="44" viewBox="0 0 43 44" fill="none" xmlns="http://www.w3.org/2000/svg">
<path d="M21.4971 16.3781C20.4847 16.3784 19.4952 16.679 18.6536 17.2417C17.8121 17.8044 17.1562 18.604 16.7691 19.5394C16.3819 20.4748 16.2808 21.504 16.4786 22.4969C16.6763 23.4898 17.164 24.4017 17.88 25.1174C18.596 25.8331 19.5081 26.3205 20.501 26.5178C21.4939 26.7152 22.5231 26.6137 23.4584 26.2262C24.3936 25.8387 25.193 25.1826 25.7554 24.3408C26.3178 23.499 26.618 22.5094 26.618 21.4971C26.6169 20.1394 26.077 18.8377 25.1168 17.8778C24.1566 16.918 22.8547 16.3786 21.4971 16.3781ZM33.4653 12.4433C33.2047 11.7829 32.8112 11.1831 32.3092 10.6811C31.8072 10.179 31.2073 9.78552 30.5469 9.52492C28.5316 8.72934 23.7331 8.90784 21.4971 8.90784C19.261 8.90784 14.4673 8.72262 12.4462 9.52492C11.7858 9.78552 11.186 10.179 10.6839 10.6811C10.1819 11.1831 9.7884 11.7829 9.5278 12.4433C8.73318 14.4587 8.91072 19.2619 8.91072 21.4961C8.91072 23.7302 8.73318 28.5277 9.53164 30.5498C9.79224 31.2102 10.1858 31.8101 10.6878 32.3121C11.1898 32.8141 11.7896 33.2076 12.4501 33.4682C14.4654 34.2638 19.2639 34.0853 21.5009 34.0853C23.7379 34.0853 28.5297 34.2705 30.5508 33.4682C31.2112 33.2076 31.811 32.8141 32.313 32.3121C32.8151 31.8101 33.2086 31.2102 33.4692 30.5498C34.2705 28.5345 34.0863 23.7312 34.0863 21.4971C34.0863 19.2629 34.2705 14.4664 33.4692 12.4443L33.4653 12.4433ZM21.4971 29.3665C19.9406 29.3665 18.4191 28.905 17.125 28.0403C15.8309 27.1756 14.8222 25.9465 14.2266 24.5086C13.631 23.0706 13.4752 21.4883 13.7788 19.9618C14.0824 18.4353 14.8319 17.0331 15.9325 15.9325C17.0331 14.8319 18.4353 14.0824 19.9618 13.7788C21.4883 13.4752 23.0706 13.631 24.5086 14.2266C25.9465 14.8222 27.1756 15.8309 28.0403 17.125C28.905 18.4191 29.3665 19.9406 29.3665 21.4971C29.3678 22.5308 29.1651 23.5547 28.7701 24.5101C28.375 25.4654 27.7954 26.3334 27.0644 27.0644C26.3334 27.7954 25.4654 28.375 24.5101 28.7701C23.5547 29.1651 22.5308 29.3678 21.4971 29.3665ZM29.6909 15.1343C29.3275 15.1345 28.9723 15.0269 28.6701 14.8252C28.3679 14.6235 28.1323 14.3367 27.9932 14.0011C27.854 13.6654 27.8175 13.2961 27.8883 12.9397C27.959 12.5833 28.1339 12.2559 28.3907 11.999C28.6476 11.742 28.9749 11.5669 29.3312 11.496C29.6876 11.425 30.0569 11.4613 30.3926 11.6003C30.7283 11.7393 31.0153 11.9748 31.2171 12.2769C31.419 12.579 31.5268 12.9341 31.5268 13.2975C31.5278 13.5387 31.4811 13.7778 31.3895 14.0011C31.2979 14.2243 31.1632 14.4272 30.993 14.5982C30.8227 14.7692 30.6204 14.905 30.3977 14.9976C30.1749 15.0903 29.936 15.138 29.6947 15.1381L29.6909 15.1343ZM38.3876 0H4.60651C3.38479 0 2.2131 0.485328 1.34922 1.34922C0.485327 2.2131 0 3.38479 0 4.60651L0 38.3876C0 39.6093 0.485327 40.781 1.34922 41.6449C2.2131 42.5088 3.38479 42.9941 4.60651 42.9941H38.3876C39.6093 42.9941 40.781 42.5088 41.6449 41.6449C42.5088 40.781 42.9941 39.6093 42.9941 38.3876V4.60651C42.9941 3.38479 42.5088 2.2131 41.6449 1.34922C40.781 0.485328 39.6093 0 38.3876 0ZM36.7446 27.831C36.6208 30.2907 36.0594 32.4701 34.2638 34.2609C32.4682 36.0517 30.2907 36.6246 27.8339 36.7417C25.2993 36.8847 17.7005 36.8847 15.166 36.7417C12.7063 36.6179 10.5345 36.0555 8.73606 34.2609C6.9376 32.4663 6.37234 30.2859 6.25526 27.831C6.11226 25.2955 6.11226 17.6957 6.25526 15.1631C6.37906 12.7034 6.93376 10.524 8.73606 8.73318C10.5384 6.9424 12.7159 6.37618 15.166 6.2591C17.7005 6.1161 25.2993 6.1161 27.8339 6.2591C30.2936 6.3829 32.4721 6.94527 34.2638 8.73989C36.0555 10.5345 36.6275 12.7149 36.7446 15.1746C36.8876 17.7005 36.8876 25.2936 36.7446 27.831Z" fill="black"/>
<path d="M3.07043 0.00585938H39.9296C41.6299 0.00585938 43 1.38298 43 3.07628V39.9354C43 41.6358 41.6229 43.0059 39.9296 43.0059H3.07043C1.37712 43.0059 0 41.6287 0 39.9354V3.07628C0 1.38298 1.37712 0.00585938 3.07043 0.00585938Z" fill="url(#paint0_radial_262_6374)"/>
<path d="M29.0816 38.0527H13.9192C8.97984 38.0527 4.95386 34.0337 4.95386 29.0873V13.9249C4.95386 8.98551 8.97281 4.95953 13.9192 4.95953H29.0887C34.028 4.95953 38.054 8.97849 38.054 13.9249V29.0943C38.047 34.0337 34.028 38.0527 29.0816 38.0527ZM13.9192 7.72081C10.4975 7.72081 7.71513 10.5032 7.71513 13.9249V29.0943C7.71513 32.5161 10.4975 35.2984 13.9192 35.2984H29.0887C32.5104 35.2984 35.2927 32.5161 35.2927 29.0943V13.9249C35.2927 10.5032 32.5104 7.72081 29.0887 7.72081H13.9192ZM21.5004 29.7829C16.9405 29.7829 13.2236 26.0731 13.2236 21.5061C13.2236 16.9461 16.9334 13.2293 21.5004 13.2293C26.0604 13.2293 29.7772 16.9391 29.7772 21.5061C29.7772 26.0661 26.0604 29.7829 21.5004 29.7829ZM21.5004 15.9906C18.4581 15.9906 15.9849 18.4638 15.9849 21.5061C15.9849 24.5484 18.4581 27.0216 21.5004 27.0216C24.5427 27.0216 27.0159 24.5484 27.0159 21.5061C27.0159 18.4638 24.5427 15.9906 21.5004 15.9906Z" fill="white" stroke="white" stroke-width="0.475312" stroke-miterlimit="10"/>
<path d="M30.051 14.7117C31.0211 14.7117 31.8075 13.9253 31.8075 12.9551C31.8075 11.985 31.0211 11.1986 30.051 11.1986C29.0809 11.1986 28.2944 11.985 28.2944 12.9551C28.2944 13.9253 29.0809 14.7117 30.051 14.7117Z" fill="white" stroke="white" stroke-width="0.534725" stroke-miterlimit="10"/>
<defs>
<radialGradient id="paint0_radial_262_6374" cx="0" cy="0" r="1" gradientUnits="userSpaceOnUse" gradientTransform="translate(9.22015 50.3045) rotate(-57.375) scale(68.0501 49.9242)">
<stop stop-color="#F9ED32"/>
<stop offset="0.53" stop-color="#FF4700"/>
<stop offset="0.72" stop-color="#EE2A7B"/>
<stop offset="1" stop-color="#002AFF"/>
</radialGradient>
</defs>
</svg>
