<svg width="45" height="45" viewBox="0 0 45 45" fill="none" xmlns="http://www.w3.org/2000/svg">
<path fill-rule="evenodd" clip-rule="evenodd" d="M41.6208 43.7986C42.9313 43.7986 43.9938 42.7359 43.9938 41.4254V3.17176C43.9938 1.8608 42.9311 0.798584 41.6208 0.798584H3.36732C2.05635 0.798584 0.994141 1.86096 0.994141 3.17176V41.4252C0.994141 42.7359 2.05635 43.7984 3.36732 43.7984L41.6208 43.7986ZM30.6632 43.7986V27.1467H36.2525L37.0894 20.6571H30.6631V16.5138C30.6631 14.6349 31.1848 13.3545 33.8792 13.3545L37.3156 13.3529V7.5487C36.7212 7.46975 34.6812 7.29301 32.3082 7.29301C27.3535 7.29301 23.9615 10.3172 23.9615 15.8713V20.6571H18.3578V27.1467H23.9615V43.7984L30.6632 43.7986Z" fill="#485A96"/>
</svg>
